# xmcd
#
# Track frame offsets:
#	150
#	10425
#	26700
#	43350
#	58300
#	72525
#	86050
#	102825
#	118800
#	131850
#	152500
#	166825
#	183775
#	197750
#	211275
#	232100
#	245725
#	258725
#	273350
#	286250
#
# Disc length: 3989 seconds
#
# Revision: 1
# Processed by: cddbd v1.5.2PL0 Copyright (c) Steve Scherf et al.
# Submitted via: audiograbber 1.83.01
#
DISCID=360f9314
DTITLE=Rhöntaler Quartet - Rhönerland - Heimatland
DYEAR=1900
DGENRE=
TTITLE0=Auf zur Rhön hinauf
TTITLE1=Heimatglocken
TTITLE2=Wo die drei Birken stehn
TTITLE3=Schönes Rhönerland
TTITLE4=Fröhliche Musikanten
TTITLE5=Wo die Fuldquelle rauscht
TTITLE6=Der Schnitzer aus der Rhön
TTITLE7=Kreuzberglied
TTITLE8=Sei mir gegrüßt mein Hessenland
TTITLE9=Rosen im Wind
TTITLE10=Frühlingsklänge
TTITLE11=Die Glocken vom Kreuzberg
TTITLE12=Ich weiß basaltene Höhen
TTITLE13=Herrliches Rhönland
TTITLE14=Der alte Schäfer
TTITLE15=Heimatland wie bist du schön
TTITLE16=Es blühten Vergißmeinnicht
TTITLE17=Hessenland du bist mein Heimatland
TTITLE18=Nach meiner Heimat
TTITLE19=Auf Wiedersehn
EXTD=
EXTT0=
EXTT1=
EXTT2=
EXTT3=
EXTT4=
EXTT5=
EXTT6=
EXTT7=
EXTT8=
EXTT9=
EXTT10=
EXTT11=
EXTT12=
EXTT13=
EXTT14=
EXTT15=
EXTT16=
EXTT17=
EXTT18=
EXTT19=
PLAYORDER=
